Coordinates
version=1
nRows=19
nColumns=36
inDegrees=yes

Units are S.I. units (second, meters, Newtons, ...)
If the header above contains a line with 'inDegrees', this indicates whether rotational values are in degrees (yes) or radians (no).

endheader
time	pelvis_tilt	pelvis_list	pelvis_rotation	pelvis_tx	pelvis_ty	pelvis_tz	hip_flexion_r	hip_adduction_r	hip_rotation_r	knee_angle_r	knee_angle_r_beta	ankle_angle_r	subtalar_angle_r	mtp_angle_r	hip_flexion_l	hip_adduction_l	hip_rotation_l	knee_angle_l	knee_angle_l_beta	ankle_angle_l	subtalar_angle_l	mtp_angle_l	lumbar_extension	lumbar_bending	lumbar_rotation	arm_flex_r	arm_add_r	arm_rot_r	elbow_flex_r	pro_sup_r	arm_flex_l	arm_add_l	arm_rot_l	elbow_flex_l	pro_sup_l
      0.00000000	     -6.13536329	     -0.55985483	     -6.70392291	      0.76546484	      0.89422375	      0.14255792	      5.71480988	     -5.60888749	     -7.49336504	      3.62990824	      0.06335385	      5.26267208	     -3.02144819	     -6.62654714	      3.52995830	     -8.84833537	     -5.19388640	      0.97164488	      0.01695840	      6.52515178	     -2.30932511	     -6.62654714	      2.35224197	      2.49296806	      3.35956059	      2.53212542	    -10.68654990	      0.38740178	     20.30941582	     95.55448250	     -0.55054672	     -8.17649257	     -1.15319737	     22.50619476	     95.20439972
      0.01666670	     -5.44286214	      0.24157435	     -7.58372418	      0.76513990	      0.89506051	      0.14301608	      5.30992687	     -6.47751442	     -8.81592277	      3.23777941	      0.05650991	      5.35780741	     -2.77692702	     -6.96676364	      2.86343529	     -8.00738506	     -7.60581288	      1.02930033	      0.01796468	      5.79184112	     -2.92139340	     -6.96676364	      2.50499652	      1.72703654	      3.50268899	      3.96039175	    -10.63754746	      2.28002217	     18.23394738	     98.29564699	     -1.27573117	     -8.21820512	     -2.44996726	     21.95138054	     95.39838923
      0.03333330	     -4.58768205	      0.03589603	     -7.05688826	      0.76423744	      0.89672725	      0.14251225	      4.76877558	     -6.35458090	     -9.95677520	      3.93487419	      0.06867651	      5.67433203	     -3.25462712	     -7.26223968	      2.60420047	     -8.05367191	     -9.02390786	      2.02665334	      0.03537177	      5.72613361	     -3.64935273	     -7.26223968	      1.47475509	      1.86727182	      2.87187118	      4.60606365	    -11.03738027	      6.28399104	     17.65561229	     95.28027731	     -0.72934908	     -8.80373980	      0.51266997	     21.48075855	     91.25540921
      0.05000000	     -3.82748602	     -0.10409997	     -6.49062133	      0.76228908	      0.89978003	      0.14112119	      3.97516107	     -6.38714933	    -11.59012450	      3.92734359	      0.06854508	      5.49749366	     -2.98795570	     -7.39266536	      2.34354489	     -8.06981054	     -9.98857926	      2.55435701	      0.04458194	      5.81344406	     -3.41348598	     -7.39266536	      0.11308124	      1.84211119	      2.14438817	      5.09440538	    -10.81760496	      3.39639623	     18.13565199	    101.49162769	     -0.47872667	     -8.55978920	     -3.43436568	     22.42216955	     97.15369456
      0.06666670	     -3.37602193	     -0.18049490	     -6.19379590	      0.76095909	      0.89758372	      0.14022729	      3.49745977	     -6.39957761	    -12.31931140	      3.93842412	      0.06873847	      5.56816532	     -3.15233482	     -7.42021042	      2.10346730	     -8.06916063	    -10.52094473	      2.67450391	      0.04667890	      5.71409907	     -3.11150939	     -7.42021042	     -0.69462568	      1.91277837	      1.98610580	      5.33377005	    -10.90495622	      4.32664627	     18.15337679	     99.25998422	      0.06887816	     -8.67707817	     -2.88817060	     22.56803419	     94.78424143
      0.08333330	     -3.23882037	     -0.18503049	     -6.01252155	      0.76076452	      0.89645715	      0.14037468	      3.31716358	     -6.42672839	    -12.73490581	      3.83468881	      0.06692795	      5.18692139	     -3.79844763	     -7.46725853	      2.07210664	     -8.08428257	    -11.00561660	      2.61633690	      0.04566369	      5.57038222	     -2.51175305	     -7.46725853	     -0.99021941	      1.93848180	      1.82113160	      5.49895589	    -11.30142936	      8.41074276	     18.12728985	     96.49956090	      0.33563155	     -9.28123801	      0.38337920	     22.80133503	     91.97694151
      0.10000000	     -3.09549714	     -0.13551939	     -5.84934305	      0.76021717	      0.90117342	      0.13997192	      3.07836058	     -6.54093845	    -13.26798528	      3.80291450	      0.06637338	      5.03089217	     -4.01599695	     -7.46751938	      1.97902362	     -8.01218339	    -11.02742442	      2.58935661	      0.04519280	      5.22988175	     -2.41831649	     -7.46751938	     -1.26610018	      1.85907866	      1.88402968	      5.41736203	    -11.24537944	      8.30581030	     18.15396099	     96.66168412	      0.59129305	     -9.32120837	      0.17884981	     22.96578653	     92.12366142
      0.11666670	     -2.81236196	     -0.13813525	     -5.74433012	      0.76043966	      0.89982140	      0.14030033	      2.58911561	     -6.52768633	    -13.55225489	      3.44438277	      0.06011582	      4.50372222	     -4.51042817	     -7.47184900	      1.63184896	     -7.97847811	    -11.05243321	      2.39077258	      0.04172685	      4.83331385	     -2.37800590	     -7.47184900	     -1.80947537	      1.76938777	      2.05202528	      5.10801138	    -11.27890451	      8.11133645	     18.98131419	     95.11734788	      0.49599395	     -9.41570498	     -0.23405213	     23.93053924	     90.48216653
      0.13333330	     -2.76547110	     -0.12351843	     -5.65420985	      0.75959154	      0.90376841	      0.13964555	      2.46568918	     -6.54134898	    -13.77611401	      3.38133334	      0.05901540	      4.42288410	     -4.73791162	     -7.48035352	      1.58224730	     -7.96551765	    -11.16190784	      2.26353479	      0.03950613	      4.58453241	     -2.14041569	     -7.48035352	     -1.91361325	      1.77018639	      2.13453084	      5.23063007	    -11.08517186	      6.31153177	     18.81724838	    102.84157020	      0.72442514	     -9.27020596	     -2.47724385	     23.47949465	     99.24703827
      0.15000000	     -2.67867443	     -0.06473255	     -5.60998384	      0.75983152	      0.90174238	      0.14005277	      2.23475435	     -6.55909919	    -13.83797115	      3.15032273	      0.05498350	      4.20807418	     -5.14066527	     -7.49209656	      1.44499024	     -7.88342168	    -11.31001544	      2.10841905	      0.03679885	      4.32018162	     -1.91962090	     -7.49209656	     -2.10370846	      1.65917223	      2.27779446	      5.14019855	    -10.95408013	      5.67921614	     19.03671786	    103.28882851	      0.78618840	     -9.21386277	     -3.66057472	     23.61279255	    100.26683893
      0.16666670	     -2.70013769	     -0.04237239	     -5.49224422	      0.75960758	      0.90091580	      0.13995859	      2.16173789	     -6.52678226	    -14.09640805	      3.00507380	      0.05244843	      4.15867358	     -5.27211965	     -7.49382578	      1.47462412	     -7.85691504	    -11.35830711	      1.94463292	      0.03394025	      3.99839283	     -1.88858222	     -7.49382578	     -2.11357217	      1.61781683	      2.39326006	      5.25397617	    -10.89684705	      6.67213455	     18.63023130	    100.23703890	      0.99913787	     -9.34157292	     -2.64321292	     23.23903018	     97.33418425
      0.18333330	     -2.70422533	     -0.02463769	     -5.40970588	      0.76001496	      0.89898100	      0.14040562	      2.07468474	     -6.47410341	    -14.22817091	      2.81643895	      0.04915613	      4.00394377	     -5.57663004	     -7.49547967	      1.50810269	     -7.83310235	    -11.46483526	      1.84237868	      0.03215557	      3.83069064	     -1.77769521	     -7.49547967	     -2.20015705	      1.57811414	      2.47187903	      5.33309870	    -10.88904017	      7.98733257	     18.29916281	     97.09189804	      1.30442252	     -9.51178601	     -1.37282460	     22.72509330	     94.39091713
      0.20000000	     -2.56035594	     -0.03985863	     -5.26953440	      0.75946116	      0.90059814	      0.13992874	      1.82092050	     -6.42520178	    -14.40718461	      2.69257565	      0.04699431	      4.01186368	     -5.68839564	     -7.49746882	      1.35113908	     -7.82338737	    -11.36503797	      1.68741293	      0.02945091	      3.58668636	     -1.82346392	     -7.49746882	     -2.65373607	      1.52747680	      2.53530660	      5.09236101	    -10.84553625	      6.00945382	     19.24357458	    103.92004512	      1.05040278	     -9.39066301	     -3.67422670	     23.92017126	    101.42111099
      0.21666670	     -2.51851286	     -0.03673349	     -5.27142981	      0.75977356	      0.89860587	      0.14031783	      1.72680094	     -6.37814062	    -14.50765953	      2.61561266	      0.04565105	      4.06828443	     -5.78206404	     -7.49914974	      1.30342291	     -7.80365561	    -11.49130291	      1.61359005	      0.02816246	      3.43690903	     -1.78183406	     -7.49914974	     -2.79771235	      1.52677999	      2.59864785	      5.15953668	    -10.81925742	      6.14008766	     19.27045194	    104.05684469	      1.05786699	     -9.42055351	     -3.70528872	     24.03710316	    101.62820076
      0.23333330	     -2.46411338	     -0.03205711	     -5.20865630	      0.75904087	      0.90039879	      0.13992142	      1.62411812	     -6.34383861	    -14.57543585	      2.52296186	      0.04403399	      4.07406805	     -5.95768745	     -7.49941902	      1.25170115	     -7.79506932	    -11.45960716	      1.53205056	      0.02673933	      3.22121782	     -1.86568649	     -7.49941902	     -2.95078255	      1.51392554	      2.62466919	      5.25395111	    -10.91859599	      7.56089169	     19.21129930	    102.72174615	      1.25584371	     -9.60026332	     -2.21033724	     23.97655906	    100.13328978
      0.25000000	     -2.43121634	     -0.04094263	     -5.15660806	      0.75905494	      0.90105701	      0.13994403	      1.55156006	     -6.30901892	    -14.70103387	      2.45859875	      0.04291064	      4.15427271	     -5.94009553	     -7.49972895	      1.22426681	     -7.80230401	    -11.41957405	      1.45768790	      0.02544145	      3.05275776	     -1.88832198	     -7.49972895	     -3.10170400	      1.50771626	      2.60520100	      5.21692372	    -10.78994222	      6.45684878	     19.40991017	    104.54068240	      1.24957364	     -9.44125533	     -3.45774212	     24.29264608	    101.96404840
      0.26666670	     -2.43681261	     -0.04072728	     -5.17003998	      0.76339357	      0.89920651	      0.13768511	      1.53167983	     -6.30652822	    -14.70171368	      2.46393263	      0.04300374	      4.15587619	     -5.94155223	     -7.49972897	      1.21886680	     -7.78985500	    -11.41996211	      1.46171542	      0.02551175	      3.05066125	     -1.88738834	     -7.49972897	     -3.10496302	      1.50620482	      2.60414780	      5.21835230	    -10.78440254	      6.45741746	     19.41023055	    104.54063897	      1.25527894	     -9.44208545	     -3.45770749	     24.29390597	    101.96400871
      0.28333330	     -2.44766945	     -0.03132959	     -5.16832856	      0.75891487	      0.89887327	      0.14020732	      1.52291548	     -6.29091264	    -14.70538664	      2.46170701	      0.04296489	      4.15979555	     -5.94400321	     -7.49972899	      1.22449696	     -7.78731036	    -11.41776582	      1.45402200	      0.02537747	      3.04987355	     -1.88621955	     -7.49972899	     -3.09908124	      1.51260166	      2.59865666	      5.21265171	    -10.78433184	      6.45758851	     19.40933934	    104.54057624	      1.25837612	     -9.43481317	     -3.45639980	     24.29637040	    101.96406339
      0.30000000	     -2.27539990	     -0.07151183	     -5.08437121	      0.75856905	      0.90012213	      0.13972715	      1.24059157	     -6.23015853	    -14.89082409	      2.34797524	      0.04097990	      4.39923601	     -5.93903383	     -7.49977372	      0.97352151	     -7.80907074	    -11.20110971	      1.29993429	      0.02268813	      2.89677538	     -1.85772195	     -7.49977372	     -3.22554746	      1.55209853	      2.43064441	      5.28139292	    -10.73548806	      7.06156385	     19.33986309	    104.48474843	      1.36488435	     -9.47033146	     -2.77312069	     24.39497176	    101.74142155
